ffmpeg started on 2026-01-19 at 12:11:26
Report written to "D:\Convert\FFMetrics\reports\ssim_report-6.txt"
Log level: 32
Command line:
ffmpeg -hide_banner -nostdin -r 24000/1001 -i "F:\\Convert\\files\\[DC] Make Heroine ga Oosugiru - 07_Telegram_HEVC(174).mkv" -r 24000/1001 -i "F:\\Convert\\files\\[DC] Make Heroine ga Oosugiru - 07_Telegram.mp4" -lavfi "[0:v]settb=AVTB,setpts=PTS-STARTPTS,format=pix_fmts=yuv420p10le,fps=24000/1001,scale=1920:1080:flags=lanczos:param0=3:out_range=limited:out_color_matrix=bt709:out_chroma_loc=left,setsar=1/1,setdar=(1920/1080)*(1/1),colorspace=format=yuv420p10:range=tv:primaries=bt709:trc=bt709:space=bt709:fast=0[main];[1:v]settb=AVTB,setpts=PTS-STARTPTS,format=pix_fmts=yuv420p,fps=24000/1001,scale=1920:1080:flags=lanczos:param0=3:out_range=limited:out_color_matrix=bt709:out_chroma_loc=left,setsar=1.000,setdar=1.778,colorspace=format=yuv420p:range=tv:primaries=bt709:trc=bt709:space=bt709:fast=0[ref];[main][ref]ssim=eof_action=endall:stats_file='D\\:/Convert/FFMetrics/logs/ssim_logfile-6.txt'" -f null -
Input #0, matroska,webm, from 'F:\Convert\files\[DC] Make Heroine ga Oosugiru - 07_Telegram_HEVC(174).mkv':
  Metadata:
    COMPATIBLE_BRANDS: isomiso2avc1mp41
    MAJOR_BRAND     : isom
    MINOR_VERSION   : 512
    ENCODER         : Lavf61.7.100
  Duration: 00:24:06.79, start: -0.021000, bitrate: 918 kb/s
  Stream #0:0: Video: hevc (Main 10), yuv420p10le(tv, bt709, progressive), 1920x1080 [SAR 1:1 DAR 16:9], 23.98 fps, 23.98 tbr, 1k tbn (default)
      Metadata:
        HANDLER_NAME    : VideoHandler
        VENDOR_ID       : [0][0][0][0]
        ENCODER         : Lavc61.19.100 libx265
        BPS             : 721014
        DURATION        : 00:24:06.569708333
        NUMBER_OF_FRAMES: 34683
        NUMBER_OF_BYTES : 130374656
        _STATISTICS_WRITING_APP: mkvpropedit v94.0 ('Initiate') 64-bit
        _STATISTICS_WRITING_DATE_UTC: 2026-01-19 07:36:59
        _STATISTICS_TAGS: BPS DURATION NUMBER_OF_FRAMES NUMBER_OF_BYTES
  Stream #0:1: Audio: aac (LC), 48000 Hz, stereo, fltp (default)
      Metadata:
        HANDLER_NAME    : SoundHandler
        VENDOR_ID       : [0][0][0][0]
        ENCODER         : Lavc61.19.100 aac
        BPS             : 193194
        DURATION        : 00:24:06.784000000
        NUMBER_OF_FRAMES: 67819
        NUMBER_OF_BYTES : 34938755
        _STATISTICS_WRITING_APP: mkvpropedit v94.0 ('Initiate') 64-bit
        _STATISTICS_WRITING_DATE_UTC: 2026-01-19 07:36:59
        _STATISTICS_TAGS: BPS DURATION NUMBER_OF_FRAMES NUMBER_OF_BYTES
Input #1, mov,mp4,m4a,3gp,3g2,mj2, from 'F:\Convert\files\[DC] Make Heroine ga Oosugiru - 07_Telegram.mp4':
  Metadata:
    major_brand     : isom
    minor_version   : 512
    compatible_brands: isomiso2avc1mp41
    encoder         : Lavf60.16.100
  Duration: 00:24:06.74, start: 0.000000, bitrate: 3764 kb/s
  Stream #1:0[0x1](und): Video: h264 (High) (avc1 / 0x31637661), yuv420p(tv, bt709, progressive), 1920x1080 [SAR 1:1 DAR 16:9], 3616 kb/s, 23.98 fps, 23.98 tbr, 24k tbn (default)
      Metadata:
        handler_name    : VideoHandler
        vendor_id       : [0][0][0][0]
        encoder         : Lavc60.31.102 h264_qsv
  Stream #1:1[0x2](und): Audio: aac (HE-AACv2) (mp4a / 0x6134706D), 48000 Hz, stereo, fltp, 144 kb/s (default)
      Metadata:
        handler_name    : SoundHandler
        vendor_id       : [0][0][0][0]
Stream mapping:
  Stream #0:0 (hevc) -> settb:default
  Stream #1:0 (h264) -> settb:default
  ssim:default -> Stream #0:0 (wrapped_avframe)
  Stream #0:1 -> #0:1 (aac (native) -> pcm_s16le (native))
Output #0, null, to 'pipe:':
  Metadata:
    COMPATIBLE_BRANDS: isomiso2avc1mp41
    MAJOR_BRAND     : isom
    MINOR_VERSION   : 512
    encoder         : Lavf61.7.100
  Stream #0:0: Video: wrapped_avframe, yuv420p10le(tv, bt709, progressive), 1920x1080 [SAR 1:1 DAR 16:9], q=2-31, 200 kb/s, 23.98 fps, 23.98 tbn
      Metadata:
        encoder         : Lavc61.19.100 wrapped_avframe
  Stream #0:1: Audio: pcm_s16le, 48000 Hz, stereo, s16, 1536 kb/s (default)
      Metadata:
        HANDLER_NAME    : SoundHandler
        VENDOR_ID       : [0][0][0][0]
        _STATISTICS_TAGS: BPS DURATION NUMBER_OF_FRAMES NUMBER_OF_BYTES
        BPS             : 193194
        DURATION        : 00:24:06.784000000
        NUMBER_OF_FRAMES: 67819
        NUMBER_OF_BYTES : 34938755
        _STATISTICS_WRITING_APP: mkvpropedit v94.0 ('Initiate') 64-bit
        _STATISTICS_WRITING_DATE_UTC: 2026-01-19 07:36:59
        encoder         : Lavc61.19.100 pcm_s16le
frame=  142 fps=0.0 q=-0.0 size=N/A time=00:00:05.92 bitrate=N/A speed=11.3x    frame=  331 fps=320 q=-0.0 size=N/A time=00:00:13.80 bitrate=N/A speed=13.3x    frame=  525 fps=340 q=-0.0 size=N/A time=00:00:21.89 bitrate=N/A speed=14.2x    frame=  736 fps=355 q=-0.0 size=N/A time=00:00:30.69 bitrate=N/A speed=14.8x    frame=  914 fps=353 q=-0.0 size=N/A time=00:00:38.12 bitrate=N/A speed=14.7x    frame= 1070 fps=345 q=-0.0 size=N/A time=00:00:44.62 bitrate=N/A speed=14.4x    frame= 1238 fps=342 q=-0.0 size=N/A time=00:00:51.63 bitrate=N/A speed=14.3x    frame= 1407 fps=340 q=-0.0 size=N/A time=00:00:58.68 bitrate=N/A speed=14.2x    frame= 1554 fps=334 q=-0.0 size=N/A time=00:01:04.81 bitrate=N/A speed=  14x    frame= 1712 fps=332 q=-0.0 size=N/A time=00:01:11.40 bitrate=N/A speed=13.8x    frame= 1889 fps=332 q=-0.0 size=N/A time=00:01:18.78 bitrate=N/A speed=13.9x    frame= 2050 fps=331 q=-0.0 size=N/A time=00:01:25.50 bitrate=N/A speed=13.8x    frame= 2170 fps=324 q=-0.0 size=N/A time=00:01:30.50 bitrate=N/A speed=13.5x    frame= 2335 fps=323 q=-0.0 size=N/A time=00:01:37.38 bitrate=N/A speed=13.5x    frame= 2477 fps=320 q=-0.0 size=N/A time=00:01:43.31 bitrate=N/A speed=13.3x    frame= 2630 fps=319 q=-0.0 size=N/A time=00:01:49.69 bitrate=N/A speed=13.3x    frame= 2812 fps=321 q=-0.0 size=N/A time=00:01:57.28 bitrate=N/A speed=13.4x    frame= 2998 fps=323 q=-0.0 size=N/A time=00:02:05.04 bitrate=N/A speed=13.5x    frame= 3199 fps=326 q=-0.0 size=N/A time=00:02:13.42 bitrate=N/A speed=13.6x    frame= 3403 fps=330 q=-0.0 size=N/A time=00:02:21.93 bitrate=N/A speed=13.8x    frame= 3609 fps=333 q=-0.0 size=N/A time=00:02:30.52 bitrate=N/A speed=13.9x    frame= 3809 fps=336 q=-0.0 size=N/A time=00:02:38.86 bitrate=N/A speed=  14x    frame= 4007 fps=338 q=-0.0 size=N/A time=00:02:47.12 bitrate=N/A speed=14.1x    frame= 4212 fps=340 q=-0.0 size=N/A time=00:02:55.67 bitrate=N/A speed=14.2x    frame= 4413 fps=342 q=-0.0 size=N/A time=00:03:04.05 bitrate=N/A speed=14.3x    frame= 4607 fps=343 q=-0.0 size=N/A time=00:03:12.15 bitrate=N/A speed=14.3x    frame= 4803 fps=345 q=-0.0 size=N/A time=00:03:20.32 bitrate=N/A speed=14.4x    frame= 5000 fps=346 q=-0.0 size=N/A time=00:03:28.54 bitrate=N/A speed=14.4x    frame= 5199 fps=347 q=-0.0 size=N/A time=00:03:36.84 bitrate=N/A speed=14.5x    frame= 5396 fps=349 q=-0.0 size=N/A time=00:03:45.05 bitrate=N/A speed=14.5x    frame= 5586 fps=349 q=-0.0 size=N/A time=00:03:52.98 bitrate=N/A speed=14.6x    frame= 5782 fps=350 q=-0.0 size=N/A time=00:04:01.15 bitrate=N/A speed=14.6x    frame= 5986 fps=352 q=-0.0 size=N/A time=00:04:09.66 bitrate=N/A speed=14.7x    frame= 6170 fps=352 q=-0.0 size=N/A time=00:04:17.34 bitrate=N/A speed=14.7x    frame= 6357 fps=352 q=-0.0 size=N/A time=00:04:25.13 bitrate=N/A speed=14.7x    frame= 6560 fps=353 q=-0.0 size=N/A time=00:04:33.60 bitrate=N/A speed=14.7x    frame= 6750 fps=354 q=-0.0 size=N/A time=00:04:41.53 bitrate=N/A speed=14.8x    frame= 6943 fps=354 q=-0.0 size=N/A time=00:04:49.58 bitrate=N/A speed=14.8x    frame= 7119 fps=354 q=-0.0 size=N/A time=00:04:56.92 bitrate=N/A speed=14.8x    frame= 7297 fps=354 q=-0.0 size=N/A time=00:05:04.34 bitrate=N/A speed=14.8x    frame= 7483 fps=354 q=-0.0 size=N/A time=00:05:12.10 bitrate=N/A speed=14.8x    frame= 7673 fps=354 q=-0.0 size=N/A time=00:05:20.02 bitrate=N/A speed=14.8x    frame= 7864 fps=355 q=-0.0 size=N/A time=00:05:27.99 bitrate=N/A speed=14.8x    frame= 8048 fps=355 q=-0.0 size=N/A time=00:05:35.66 bitrate=N/A speed=14.8x    frame= 8239 fps=355 q=-0.0 size=N/A time=00:05:43.63 bitrate=N/A speed=14.8x    frame= 8432 fps=355 q=-0.0 size=N/A time=00:05:51.68 bitrate=N/A speed=14.8x    frame= 8615 fps=355 q=-0.0 size=N/A time=00:05:59.31 bitrate=N/A speed=14.8x    frame= 8808 fps=356 q=-0.0 size=N/A time=00:06:07.36 bitrate=N/A speed=14.8x    frame= 8991 fps=356 q=-0.0 size=N/A time=00:06:14.99 bitrate=N/A speed=14.8x    frame= 9180 fps=356 q=-0.0 size=N/A time=00:06:22.88 bitrate=N/A speed=14.8x    frame= 9374 fps=356 q=-0.0 size=N/A time=00:06:30.97 bitrate=N/A speed=14.9x    frame= 9568 fps=357 q=-0.0 size=N/A time=00:06:39.06 bitrate=N/A speed=14.9x    frame= 9758 fps=357 q=-0.0 size=N/A time=00:06:46.98 bitrate=N/A speed=14.9x    frame= 9941 fps=357 q=-0.0 size=N/A time=00:06:54.62 bitrate=N/A speed=14.9x    frame=10128 fps=357 q=-0.0 size=N/A time=00:07:02.42 bitrate=N/A speed=14.9x    frame=10314 fps=357 q=-0.0 size=N/A time=00:07:10.17 bitrate=N/A speed=14.9x    frame=10495 fps=357 q=-0.0 size=N/A time=00:07:17.72 bitrate=N/A speed=14.9x    frame=10689 fps=357 q=-0.0 size=N/A time=00:07:25.82 bitrate=N/A speed=14.9x    frame=10875 fps=357 q=-0.0 size=N/A time=00:07:33.57 bitrate=N/A speed=14.9x    frame=11068 fps=358 q=-0.0 size=N/A time=00:07:41.62 bitrate=N/A speed=14.9x    frame=11255 fps=358 q=-0.0 size=N/A time=00:07:49.42 bitrate=N/A speed=14.9x    frame=11447 fps=358 q=-0.0 size=N/A time=00:07:57.43 bitrate=N/A speed=14.9x    frame=11637 fps=358 q=-0.0 size=N/A time=00:08:05.35 bitrate=N/A speed=14.9x    frame=11825 fps=358 q=-0.0 size=N/A time=00:08:13.20 bitrate=N/A speed=14.9x    frame=12008 fps=358 q=-0.0 size=N/A time=00:08:20.83 bitrate=N/A speed=14.9x    frame=12191 fps=358 q=-0.0 size=N/A time=00:08:28.46 bitrate=N/A speed=14.9x    frame=12376 fps=358 q=-0.0 size=N/A time=00:08:36.18 bitrate=N/A speed=14.9x    frame=12569 fps=358 q=-0.0 size=N/A time=00:08:44.23 bitrate=N/A speed=14.9x    frame=12763 fps=358 q=-0.0 size=N/A time=00:08:52.32 bitrate=N/A speed=  15x    frame=12947 fps=358 q=-0.0 size=N/A time=00:08:59.99 bitrate=N/A speed=  15x    frame=13139 fps=359 q=-0.0 size=N/A time=00:09:08.00 bitrate=N/A speed=  15x    frame=13321 fps=359 q=-0.0 size=N/A time=00:09:15.59 bitrate=N/A speed=  15x    frame=13516 fps=359 q=-0.0 size=N/A time=00:09:23.72 bitrate=N/A speed=  15x    frame=13705 fps=359 q=-0.0 size=N/A time=00:09:31.61 bitrate=N/A speed=  15x    frame=13890 fps=359 q=-0.0 size=N/A time=00:09:39.32 bitrate=N/A speed=  15x    frame=14078 fps=359 q=-0.0 size=N/A time=00:09:47.16 bitrate=N/A speed=  15x    frame=14248 fps=359 q=-0.0 size=N/A time=00:09:54.26 bitrate=N/A speed=  15x    frame=14432 fps=359 q=-0.0 size=N/A time=00:10:01.93 bitrate=N/A speed=  15x    frame=14627 fps=359 q=-0.0 size=N/A time=00:10:10.06 bitrate=N/A speed=  15x    frame=14805 fps=359 q=-0.0 size=N/A time=00:10:17.49 bitrate=N/A speed=  15x    frame=14992 fps=359 q=-0.0 size=N/A time=00:10:25.29 bitrate=N/A speed=  15x    frame=15160 fps=358 q=-0.0 size=N/A time=00:10:32.29 bitrate=N/A speed=14.9x    frame=15342 fps=358 q=-0.0 size=N/A time=00:10:39.88 bitrate=N/A speed=14.9x    frame=15526 fps=358 q=-0.0 size=N/A time=00:10:47.56 bitrate=N/A speed=14.9x    frame=15718 fps=358 q=-0.0 size=N/A time=00:10:55.57 bitrate=N/A speed=14.9x    frame=15899 fps=358 q=-0.0 size=N/A time=00:11:03.12 bitrate=N/A speed=14.9x    frame=16077 fps=358 q=-0.0 size=N/A time=00:11:10.54 bitrate=N/A speed=14.9x    frame=16272 fps=358 q=-0.0 size=N/A time=00:11:18.67 bitrate=N/A speed=14.9x    frame=16440 fps=358 q=-0.0 size=N/A time=00:11:25.68 bitrate=N/A speed=14.9x    frame=16625 fps=358 q=-0.0 size=N/A time=00:11:33.40 bitrate=N/A speed=14.9x    frame=16816 fps=358 q=-0.0 size=N/A time=00:11:41.36 bitrate=N/A speed=14.9x    frame=17003 fps=358 q=-0.0 size=N/A time=00:11:49.16 bitrate=N/A speed=14.9x    frame=17190 fps=358 q=-0.0 size=N/A time=00:11:56.96 bitrate=N/A speed=14.9x    frame=17372 fps=358 q=-0.0 size=N/A time=00:12:04.55 bitrate=N/A speed=14.9x    frame=17547 fps=358 q=-0.0 size=N/A time=00:12:11.85 bitrate=N/A speed=14.9x    frame=17725 fps=358 q=-0.0 size=N/A time=00:12:19.28 bitrate=N/A speed=14.9x    frame=17902 fps=358 q=-0.0 size=N/A time=00:12:26.66 bitrate=N/A speed=14.9x    frame=18079 fps=358 q=-0.0 size=N/A time=00:12:34.04 bitrate=N/A speed=14.9x    frame=18246 fps=357 q=-0.0 size=N/A time=00:12:41.01 bitrate=N/A speed=14.9x    frame=18422 fps=357 q=-0.0 size=N/A time=00:12:48.35 bitrate=N/A speed=14.9x    frame=18614 fps=357 q=-0.0 size=N/A time=00:12:56.35 bitrate=N/A speed=14.9x    frame=18779 fps=357 q=-0.0 size=N/A time=00:13:03.24 bitrate=N/A speed=14.9x    frame=18943 fps=357 q=-0.0 size=N/A time=00:13:10.08 bitrate=N/A speed=14.9x    frame=19116 fps=356 q=-0.0 size=N/A time=00:13:17.29 bitrate=N/A speed=14.9x    frame=19291 fps=356 q=-0.0 size=N/A time=00:13:24.59 bitrate=N/A speed=14.9x    frame=19472 fps=356 q=-0.0 size=N/A time=00:13:32.14 bitrate=N/A speed=14.9x    frame=19652 fps=356 q=-0.0 size=N/A time=00:13:39.65 bitrate=N/A speed=14.8x    frame=19826 fps=356 q=-0.0 size=N/A time=00:13:46.90 bitrate=N/A speed=14.8x    frame=19992 fps=356 q=-0.0 size=N/A time=00:13:53.83 bitrate=N/A speed=14.8x    frame=20163 fps=355 q=-0.0 size=N/A time=00:14:00.96 bitrate=N/A speed=14.8x    frame=20338 fps=355 q=-0.0 size=N/A time=00:14:08.26 bitrate=N/A speed=14.8x    frame=20512 fps=355 q=-0.0 size=N/A time=00:14:15.52 bitrate=N/A speed=14.8x    frame=20678 fps=355 q=-0.0 size=N/A time=00:14:22.44 bitrate=N/A speed=14.8x    frame=20858 fps=355 q=-0.0 size=N/A time=00:14:29.95 bitrate=N/A speed=14.8x    frame=21037 fps=355 q=-0.0 size=N/A time=00:14:37.41 bitrate=N/A speed=14.8x    frame=21217 fps=355 q=-0.0 size=N/A time=00:14:44.92 bitrate=N/A speed=14.8x    frame=21408 fps=355 q=-0.0 size=N/A time=00:14:52.89 bitrate=N/A speed=14.8x    frame=21596 fps=355 q=-0.0 size=N/A time=00:15:00.73 bitrate=N/A speed=14.8x    frame=21784 fps=355 q=-0.0 size=N/A time=00:15:08.57 bitrate=N/A speed=14.8x    frame=21974 fps=355 q=-0.0 size=N/A time=00:15:16.49 bitrate=N/A speed=14.8x    frame=22169 fps=355 q=-0.0 size=N/A time=00:15:24.63 bitrate=N/A speed=14.8x    frame=22346 fps=355 q=-0.0 size=N/A time=00:15:32.01 bitrate=N/A speed=14.8x    frame=22525 fps=355 q=-0.0 size=N/A time=00:15:39.48 bitrate=N/A speed=14.8x    frame=22689 fps=355 q=-0.0 size=N/A time=00:15:46.32 bitrate=N/A speed=14.8x    frame=22867 fps=355 q=-0.0 size=N/A time=00:15:53.74 bitrate=N/A speed=14.8x    frame=23056 fps=355 q=-0.0 size=N/A time=00:16:01.62 bitrate=N/A speed=14.8x    frame=23238 fps=355 q=-0.0 size=N/A time=00:16:09.21 bitrate=N/A speed=14.8x    frame=23425 fps=355 q=-0.0 size=N/A time=00:16:17.01 bitrate=N/A speed=14.8x    frame=23620 fps=355 q=-0.0 size=N/A time=00:16:25.15 bitrate=N/A speed=14.8x    frame=23807 fps=355 q=-0.0 size=N/A time=00:16:32.95 bitrate=N/A speed=14.8x    frame=23992 fps=355 q=-0.0 size=N/A time=00:16:40.66 bitrate=N/A speed=14.8x    frame=24174 fps=355 q=-0.0 size=N/A time=00:16:48.25 bitrate=N/A speed=14.8x    frame=24361 fps=355 q=-0.0 size=N/A time=00:16:56.05 bitrate=N/A speed=14.8x    frame=24551 fps=355 q=-0.0 size=N/A time=00:17:03.98 bitrate=N/A speed=14.8x    frame=24743 fps=355 q=-0.0 size=N/A time=00:17:11.98 bitrate=N/A speed=14.8x    frame=24934 fps=355 q=-0.0 size=N/A time=00:17:19.95 bitrate=N/A speed=14.8x    frame=25119 fps=355 q=-0.0 size=N/A time=00:17:27.67 bitrate=N/A speed=14.8x    frame=25308 fps=356 q=-0.0 size=N/A time=00:17:35.55 bitrate=N/A speed=14.8x    frame=25496 fps=356 q=-0.0 size=N/A time=00:17:43.39 bitrate=N/A speed=14.8x    frame=25686 fps=356 q=-0.0 size=N/A time=00:17:51.36 bitrate=N/A speed=14.8x    frame=25872 fps=356 q=-0.0 size=N/A time=00:17:59.07 bitrate=N/A speed=14.8x    frame=26063 fps=356 q=-0.0 size=N/A time=00:18:07.04 bitrate=N/A speed=14.8x    frame=26250 fps=356 q=-0.0 size=N/A time=00:18:14.84 bitrate=N/A speed=14.8x    frame=26441 fps=356 q=-0.0 size=N/A time=00:18:22.81 bitrate=N/A speed=14.8x    frame=26621 fps=356 q=-0.0 size=N/A time=00:18:30.31 bitrate=N/A speed=14.8x    frame=26819 fps=356 q=-0.0 size=N/A time=00:18:38.57 bitrate=N/A speed=14.9x    frame=26986 fps=356 q=-0.0 size=N/A time=00:18:45.54 bitrate=N/A speed=14.8x    frame=27161 fps=356 q=-0.0 size=N/A time=00:18:52.84 bitrate=N/A speed=14.8x    frame=27350 fps=356 q=-0.0 size=N/A time=00:19:00.72 bitrate=N/A speed=14.8x    frame=27531 fps=356 q=-0.0 size=N/A time=00:19:08.27 bitrate=N/A speed=14.8x    frame=27715 fps=356 q=-0.0 size=N/A time=00:19:15.94 bitrate=N/A speed=14.8x    frame=27898 fps=356 q=-0.0 size=N/A time=00:19:23.57 bitrate=N/A speed=14.8x    frame=28084 fps=356 q=-0.0 size=N/A time=00:19:31.33 bitrate=N/A speed=14.8x    frame=28261 fps=356 q=-0.0 size=N/A time=00:19:38.71 bitrate=N/A speed=14.8x    frame=28450 fps=356 q=-0.0 size=N/A time=00:19:46.60 bitrate=N/A speed=14.8x    frame=28635 fps=356 q=-0.0 size=N/A time=00:19:54.31 bitrate=N/A speed=14.8x    frame=28811 fps=356 q=-0.0 size=N/A time=00:20:01.65 bitrate=N/A speed=14.8x    frame=28977 fps=356 q=-0.0 size=N/A time=00:20:08.58 bitrate=N/A speed=14.8x    frame=29159 fps=355 q=-0.0 size=N/A time=00:20:16.17 bitrate=N/A speed=14.8x    frame=29335 fps=355 q=-0.0 size=N/A time=00:20:23.51 bitrate=N/A speed=14.8x    frame=29501 fps=355 q=-0.0 size=N/A time=00:20:30.43 bitrate=N/A speed=14.8x    frame=29679 fps=355 q=-0.0 size=N/A time=00:20:37.86 bitrate=N/A speed=14.8x    frame=29854 fps=355 q=-0.0 size=N/A time=00:20:45.16 bitrate=N/A speed=14.8x    frame=30018 fps=355 q=-0.0 size=N/A time=00:20:52.00 bitrate=N/A speed=14.8x    frame=30194 fps=355 q=-0.0 size=N/A time=00:20:59.34 bitrate=N/A speed=14.8x    frame=30368 fps=355 q=-0.0 size=N/A time=00:21:06.59 bitrate=N/A speed=14.8x    frame=30566 fps=355 q=-0.0 size=N/A time=00:21:14.85 bitrate=N/A speed=14.8x    frame=30745 fps=355 q=-0.0 size=N/A time=00:21:22.32 bitrate=N/A speed=14.8x    frame=30932 fps=355 q=-0.0 size=N/A time=00:21:30.12 bitrate=N/A speed=14.8x    frame=31117 fps=355 q=-0.0 size=N/A time=00:21:37.83 bitrate=N/A speed=14.8x    frame=31294 fps=355 q=-0.0 size=N/A time=00:21:45.22 bitrate=N/A speed=14.8x    frame=31463 fps=355 q=-0.0 size=N/A time=00:21:52.26 bitrate=N/A speed=14.8x    frame=31648 fps=355 q=-0.0 size=N/A time=00:21:59.98 bitrate=N/A speed=14.8x    frame=31823 fps=355 q=-0.0 size=N/A time=00:22:07.28 bitrate=N/A speed=14.8x    frame=32003 fps=355 q=-0.0 size=N/A time=00:22:14.79 bitrate=N/A speed=14.8x    frame=32185 fps=354 q=-0.0 size=N/A time=00:22:22.38 bitrate=N/A speed=14.8x    frame=32367 fps=355 q=-0.0 size=N/A time=00:22:29.97 bitrate=N/A speed=14.8x    frame=32556 fps=355 q=-0.0 size=N/A time=00:22:37.85 bitrate=N/A speed=14.8x    frame=32711 fps=354 q=-0.0 size=N/A time=00:22:44.32 bitrate=N/A speed=14.8x    frame=32867 fps=354 q=-0.0 size=N/A time=00:22:50.82 bitrate=N/A speed=14.8x    frame=33050 fps=354 q=-0.0 size=N/A time=00:22:58.46 bitrate=N/A speed=14.8x    frame=33229 fps=354 q=-0.0 size=N/A time=00:23:05.92 bitrate=N/A speed=14.8x    frame=33396 fps=354 q=-0.0 size=N/A time=00:23:12.89 bitrate=N/A speed=14.8x    frame=33557 fps=354 q=-0.0 size=N/A time=00:23:19.60 bitrate=N/A speed=14.7x    frame=33713 fps=353 q=-0.0 size=N/A time=00:23:26.11 bitrate=N/A speed=14.7x    frame=33834 fps=353 q=-0.0 size=N/A time=00:23:31.15 bitrate=N/A speed=14.7x    frame=33979 fps=352 q=-0.0 size=N/A time=00:23:37.20 bitrate=N/A speed=14.7x    frame=34141 fps=352 q=-0.0 size=N/A time=00:23:43.96 bitrate=N/A speed=14.7x    frame=34303 fps=352 q=-0.0 size=N/A time=00:23:50.72 bitrate=N/A speed=14.7x    frame=34424 fps=351 q=-0.0 size=N/A time=00:23:55.76 bitrate=N/A speed=14.6x    frame=34595 fps=351 q=-0.0 size=N/A time=00:24:02.89 bitrate=N/A speed=14.6x    [Parsed_ssim_16 @ 000001ba5f85e3c0] SSIM Y:0.993832 (22.098636) U:0.994021 (22.234062) V:0.993651 (21.972627) All:0.993833 (22.099550)
[out#0/null @ 000001ba526a8a00] video:14903KiB audio:271276KiB subtitle:0KiB other streams:0KiB global headers:0KiB muxing overhead: unknown
frame=34683 fps=351 q=-0.0 Lsize=N/A time=00:24:06.57 bitrate=N/A speed=14.6x    
